<svg xmlns="http://www.w3.org/2000/svg" viewBox="0 0 512 512">
<defs>
  <linearGradient id="bg" x1="0" y1="0" x2="1" y2="1">
    <stop stop-color="#030608"/>
    <stop offset="1" stop-color="#09110e"/>
  </linearGradient>
  <linearGradient id="crystal" x1=".15" y1=".05" x2=".85" y2=".95">
    <stop stop-color="#ecfff8"/>
    <stop offset=".24" stop-color="#72f4d2"/>
    <stop offset=".58" stop-color="#b9f75a"/>
    <stop offset="1" stop-color="#4bd8af"/>
  </linearGradient>
</defs>
<rect width="512" height="512" rx="118" fill="url(#bg)"/>
<path d="M256 74 391 168 356 352 256 438 156 352 121 168Z" fill="#0b1714" stroke="#baffdf" stroke-width="15"/>
<path d="M256 74 304 190 391 168 333 255 356 352 256 302 156 352 179 255 121 168 208 190Z" fill="none" stroke="url(#crystal)" stroke-width="13" stroke-linejoin="round"/>
<path d="M208 190 256 302 304 190M179 255h154M156 352l100-50 100 50" fill="none" stroke="#effff9" stroke-opacity=".46" stroke-width="9"/>
<circle cx="256" cy="255" r="33" fill="#b9f75a"/>
<path d="M256 233v44M234 255h44" stroke="#07100b" stroke-width="13" stroke-linecap="round"/>
</svg>