<svg xmlns="http://www.w3.org/2000/svg" viewBox="0 0 420 260" role="img" aria-label="Carte stylisée du Sénégal">
  <defs>
    <linearGradient id="g" x1="0" y1="0" x2="1" y2="1">
      <stop offset="0" stop-color="#f8c244"/>
      <stop offset="1" stop-color="#eaa900"/>
    </linearGradient>
    <filter id="shadow" x="-20%" y="-20%" width="140%" height="140%">
      <feDropShadow dx="0" dy="8" stdDeviation="8" flood-color="#001c14" flood-opacity="0.28"/>
    </filter>
  </defs>
  <path d="M 65.85 175.69 L 44.20 134.81 L 18.00 116.12 L 41.10 106.15 L 66.53 69.28 L 79.01 42.32 L 96.99 25.49 L 123.08 30.02 L 148.70 18.58 L 178.02 18.00 L 203.11 33.43 L 237.96 47.34 L 269.73 85.97 L 304.38 122.04 L 306.79 154.70 L 317.14 184.77 L 336.80 199.52 L 341.29 219.82 L 338.87 236.18 L 331.29 239.14 L 302.66 234.99 L 298.72 240.83 L 287.15 242.00 L 249.41 229.20 L 224.06 228.66 L 127.03 226.45 L 112.96 232.37 L 95.57 230.68 L 67.75 239.23 L 59.14 198.98 L 106.93 200.09 L 119.55 192.74 L 128.96 192.30 L 148.42 180.18 L 170.94 191.27 L 193.76 192.20 L 216.48 180.41 L 205.87 165.24 L 188.56 174.08 L 172.26 173.83 L 151.54 160.91 L 134.89 161.76 L 123.04 174.19 L 65.85 175.69 Z" fill="url(#g)" stroke="#ffe9a9" stroke-width="3" stroke-linejoin="round" filter="url(#shadow)"/>
  <g fill="#0a4a36" opacity="0.9">
    <circle cx="43" cy="108" r="6"/><circle cx="93" cy="83" r="5"/><circle cx="136" cy="93" r="5"/>
    <circle cx="145" cy="132" r="5"/><circle cx="177" cy="155" r="5"/><circle cx="233" cy="173" r="5"/>
    <circle cx="300" cy="190" r="5"/><circle cx="305" cy="221" r="5"/><circle cx="262" cy="231" r="5"/>
  </g>
</svg>